<svg xmlns="http://www.w3.org/2000/svg" viewBox="0 0 100 100">
  <defs>
    <linearGradient id="grad" x1="0%" y1="0%" x2="100%" y2="100%">
      <stop offset="0%" style="stop-color:#4a90e2;stop-opacity:1" />
      <stop offset="100%" style="stop-color:#357abd;stop-opacity:1" />
    </linearGradient>
  </defs>
  <!-- Knight piece -->
  <path d="M 50 20 Q 40 15 35 25 Q 30 35 35 45 L 30 50 Q 25 55 30 65 L 25 85 L 75 85 L 70 65 Q 75 55 70 50 L 65 45 Q 70 35 65 25 Q 60 15 50 20 M 45 30 Q 50 25 55 30 Q 58 35 55 40 L 50 45 L 45 40 Q 42 35 45 30" 
        fill="url(#grad)" stroke="#2c5a8f" stroke-width="2"/>
  <ellipse cx="50" cy="32" rx="3" ry="3" fill="#fff" opacity="0.6"/>
</svg>
