<svg xmlns="http://www.w3.org/2000/svg" viewBox="0 0 100 100">
  <defs>
    <radialGradient id="ocean" cx="50%" cy="50%" r="50%" fx="25%" fy="25%">
      <stop offset="0%" stop-color="#4facfe"/>
      <stop offset="100%" stop-color="#00f2fe"/>
    </radialGradient>
  </defs>
  <circle cx="50" cy="50" r="48" fill="url(#ocean)" stroke="#2c3e50" stroke-width="2"/>
  <path d="M50,2 C76.5,2 98,23.5 98,50 C98,76.5 76.5,98 50,98 C23.5,98 2,76.5 2,50 C2,23.5 23.5,2 -50,2" fill="none" />
  <!-- Simple stylized landmasses -->
  <path d="M30,30 Q40,20 55,25 T70,40 Q65,60 50,55 T30,30 Z" fill="#43e97b" opacity="0.9" />
  <path d="M60,60 Q75,55 85,70 T70,85 Q55,80 60,60 Z" fill="#43e97b" opacity="0.9" />
  <path d="M20,50 Q25,40 35,45 T40,65 Q30,75 20,50 Z" fill="#43e97b" opacity="0.9" />
</svg>