<svg xmlns="http://www.w3.org/2000/svg" viewBox="0 0 100 100">
  <defs>
    <linearGradient id="grad1" x1="0%" y1="0%" x2="100%" y2="100%">
      <stop offset="0%" style="stop-color:#8ab4f8;stop-opacity:1" />
      <stop offset="100%" style="stop-color:#10b981;stop-opacity:1" />
    </linearGradient>
  </defs>
  
  <!-- Background circle -->
  <circle cx="50" cy="50" r="48" fill="url(#grad1)"/>
  
  <!-- 3x3 Grid -->
  <g fill="#1a1f29" opacity="0.8">
    <!-- Grid lines -->
    <rect x="35" y="20" width="2" height="60"/>
    <rect x="63" y="20" width="2" height="60"/>
    <rect x="20" y="35" width="60" height="2"/>
    <rect x="20" y="63" width="60" height="2"/>
    
    <!-- Tiles -->
    <rect x="45" y="25" width="12" height="8" rx="1" fill="#ffffff"/>
    <text x="51" y="31" font-size="6" font-weight="bold" fill="#1a1f29" text-anchor="middle">1</text>
    
    <rect x="67" y="25" width="12" height="8" rx="1" fill="#ffffff"/>
    <text x="73" y="31" font-size="6" font-weight="bold" fill="#1a1f29" text-anchor="middle">2</text>
    
    <rect x="21" y="40" width="12" height="8" rx="1" fill="#ffffff"/>
    <text x="27" y="46" font-size="6" font-weight="bold" fill="#1a1f29" text-anchor="middle">4</text>
    
    <rect x="45" y="40" width="12" height="8" rx="1" fill="#ffffff"/>
    <text x="51" y="46" font-size="6" font-weight="bold" fill="#1a1f29" text-anchor="middle">5</text>
    
    <rect x="22" y="67" width="12" height="8" rx="1" fill="#ffffff"/>
    <text x="28" y="73" font-size="6" font-weight="bold" fill="#1a1f29" text-anchor="middle">7</text>
    
    <rect x="45" y="67" width="12" height="8" rx="1" fill="#ffffff"/>
    <text x="51" y="73" font-size="6" font-weight="bold" fill="#1a1f29" text-anchor="middle">8</text>
  </g>
</svg>
